<svg width="190" height="35" viewBox="0 0 190 35" fill="none" xmlns="http://www.w3.org/2000/svg">
<rect x="112" width="35" height="35" rx="17.5" fill="#F6F8F9"/>
<path d="M135.757 13.3652C134.126 11.813 131.471 11.813 129.839 13.3649L129.5 13.6871L129.161 13.365C127.529 11.8129 124.874 11.8131 123.243 13.365C122.441 14.1272 122 15.138 122 16.2112C122 17.2847 122.441 18.2954 123.243 19.0578L129.138 24.6545C129.239 24.751 129.37 24.7991 129.5 24.7991C129.63 24.7991 129.761 24.7508 129.862 24.6543L135.757 19.0578C136.559 18.2956 137 17.2847 137 16.2114C137 15.138 136.559 14.1273 135.757 13.3652ZM135.032 18.2947L129.5 23.547L123.968 18.2949C123.378 17.7335 123.053 16.9935 123.053 16.2114C123.053 15.4293 123.378 14.6892 123.968 14.1279C124.584 13.5419 125.393 13.2491 126.202 13.2491C127.011 13.2491 127.82 13.5422 128.436 14.1282L129.137 14.7947C129.341 14.9879 129.659 14.9879 129.862 14.7947L130.564 14.1279C131.796 12.9561 133.8 12.9561 135.032 14.1279C135.622 14.6893 135.947 15.4293 135.947 16.2114C135.947 16.9935 135.622 17.7333 135.032 18.2947Z" fill="#696969"/>
<path d="M161.298 23.084C160.57 23.084 159.87 22.9673 159.198 22.734C158.535 22.5007 158.022 22.1927 157.658 21.81L158.064 21.012C158.419 21.3667 158.89 21.656 159.478 21.88C160.066 22.0947 160.673 22.202 161.298 22.202C162.175 22.202 162.833 22.0433 163.272 21.726C163.711 21.3993 163.93 20.9793 163.93 20.466C163.93 20.074 163.809 19.7613 163.566 19.528C163.333 19.2947 163.043 19.1173 162.698 18.996C162.353 18.8653 161.872 18.7253 161.256 18.576C160.519 18.3893 159.931 18.212 159.492 18.044C159.053 17.8667 158.675 17.6007 158.358 17.246C158.05 16.8913 157.896 16.4107 157.896 15.804C157.896 15.3093 158.027 14.8613 158.288 14.46C158.549 14.0493 158.951 13.7227 159.492 13.48C160.033 13.2373 160.705 13.116 161.508 13.116C162.068 13.116 162.614 13.1953 163.146 13.354C163.687 13.5033 164.154 13.7133 164.546 13.984L164.196 14.81C163.785 14.5393 163.347 14.3387 162.88 14.208C162.413 14.068 161.956 13.998 161.508 13.998C160.649 13.998 160.001 14.166 159.562 14.502C159.133 14.8287 158.918 15.2533 158.918 15.776C158.918 16.168 159.035 16.4853 159.268 16.728C159.511 16.9613 159.809 17.1433 160.164 17.274C160.528 17.3953 161.013 17.5307 161.62 17.68C162.339 17.8573 162.917 18.0347 163.356 18.212C163.804 18.38 164.182 18.6413 164.49 18.996C164.798 19.3413 164.952 19.8127 164.952 20.41C164.952 20.9047 164.817 21.3573 164.546 21.768C164.285 22.1693 163.879 22.4913 163.328 22.734C162.777 22.9673 162.101 23.084 161.298 23.084ZM169.575 15.58C170.537 15.58 171.274 15.8227 171.787 16.308C172.301 16.784 172.557 17.4933 172.557 18.436V23H171.605V21.852C171.381 22.2347 171.05 22.5333 170.611 22.748C170.182 22.9627 169.669 23.07 169.071 23.07C168.25 23.07 167.597 22.874 167.111 22.482C166.626 22.09 166.383 21.572 166.383 20.928C166.383 20.3027 166.607 19.7987 167.055 19.416C167.513 19.0333 168.236 18.842 169.225 18.842H171.563V18.394C171.563 17.7593 171.386 17.2787 171.031 16.952C170.677 16.616 170.159 16.448 169.477 16.448C169.011 16.448 168.563 16.5273 168.133 16.686C167.704 16.8353 167.335 17.0453 167.027 17.316L166.579 16.574C166.953 16.2567 167.401 16.014 167.923 15.846C168.446 15.6687 168.997 15.58 169.575 15.58ZM169.225 22.286C169.785 22.286 170.266 22.16 170.667 21.908C171.069 21.6467 171.367 21.2733 171.563 20.788V19.584H169.253C167.993 19.584 167.363 20.0227 167.363 20.9C167.363 21.3293 167.527 21.67 167.853 21.922C168.18 22.1647 168.637 22.286 169.225 22.286ZM181.308 15.636L178.032 23H177.01L173.748 15.636H174.784L177.542 21.908L180.328 15.636H181.308ZM188.915 19.626H182.755C182.811 20.3913 183.105 21.012 183.637 21.488C184.169 21.9547 184.841 22.188 185.653 22.188C186.111 22.188 186.531 22.1087 186.913 21.95C187.296 21.782 187.627 21.5393 187.907 21.222L188.467 21.866C188.141 22.258 187.73 22.5567 187.235 22.762C186.75 22.9673 186.213 23.07 185.625 23.07C184.869 23.07 184.197 22.9113 183.609 22.594C183.031 22.2673 182.578 21.8193 182.251 21.25C181.925 20.6807 181.761 20.0367 181.761 19.318C181.761 18.5993 181.915 17.9553 182.223 17.386C182.541 16.8167 182.97 16.3733 183.511 16.056C184.062 15.7387 184.678 15.58 185.359 15.58C186.041 15.58 186.652 15.7387 187.193 16.056C187.735 16.3733 188.159 16.8167 188.467 17.386C188.775 17.946 188.929 18.59 188.929 19.318L188.915 19.626ZM185.359 16.434C184.65 16.434 184.053 16.6627 183.567 17.12C183.091 17.568 182.821 18.156 182.755 18.884H187.977C187.912 18.156 187.637 17.568 187.151 17.12C186.675 16.6627 186.078 16.434 185.359 16.434Z" fill="#696969"/>
<rect width="35" height="35" rx="17.5" fill="#F6F8F9"/>
<g clip-path="url(#clip0_1987_17925)">
<g filter="url(#filter0_d_1987_17925)">
<path d="M21.1016 20.0781C20.2912 20.0781 19.5712 20.4719 19.1225 21.0781L15.2596 19.104C15.3244 18.8839 15.3594 18.651 15.3594 18.4102C15.3594 18.0839 15.2954 17.7724 15.1796 17.4872L19.2281 15.0548C19.6799 15.585 20.3521 15.9219 21.1016 15.9219C22.4585 15.9219 23.5625 14.8179 23.5625 13.4609C23.5625 12.104 22.4585 11 21.1016 11C19.7446 11 18.6406 12.104 18.6406 13.4609C18.6406 13.7746 18.6997 14.0746 18.8071 14.3507L14.7485 16.7892C14.2971 16.2747 13.6351 15.9492 12.8984 15.9492C11.5415 15.9492 10.4375 17.0532 10.4375 18.4102C10.4375 19.7671 11.5415 20.8711 12.8984 20.8711C13.7221 20.8711 14.4524 20.4643 14.8994 19.8412L18.751 21.8095C18.6793 22.0401 18.6406 22.2851 18.6406 22.5391C18.6406 23.896 19.7446 25 21.1016 25C22.4585 25 23.5625 23.896 23.5625 22.5391C23.5625 21.1821 22.4585 20.0781 21.1016 20.0781ZM21.1016 11.8203C22.0062 11.8203 22.7422 12.5563 22.7422 13.4609C22.7422 14.3656 22.0062 15.1016 21.1016 15.1016C20.1969 15.1016 19.4609 14.3656 19.4609 13.4609C19.4609 12.5563 20.1969 11.8203 21.1016 11.8203ZM12.8984 20.0508C11.9938 20.0508 11.2578 19.3148 11.2578 18.4102C11.2578 17.5055 11.9938 16.7695 12.8984 16.7695C13.8031 16.7695 14.5391 17.5055 14.5391 18.4102C14.5391 19.3148 13.8031 20.0508 12.8984 20.0508ZM21.1016 24.1797C20.1969 24.1797 19.4609 23.4437 19.4609 22.5391C19.4609 21.6344 20.1969 20.8984 21.1016 20.8984C22.0062 20.8984 22.7422 21.6344 22.7422 22.5391C22.7422 23.4437 22.0062 24.1797 21.1016 24.1797Z" fill="#696969"/>
</g>
</g>
<path d="M49.298 23.084C48.57 23.084 47.87 22.9673 47.198 22.734C46.5353 22.5007 46.022 22.1927 45.658 21.81L46.064 21.012C46.4187 21.3667 46.89 21.656 47.478 21.88C48.066 22.0947 48.6727 22.202 49.298 22.202C50.1753 22.202 50.8333 22.0433 51.272 21.726C51.7107 21.3993 51.93 20.9793 51.93 20.466C51.93 20.074 51.8087 19.7613 51.566 19.528C51.3327 19.2947 51.0433 19.1173 50.698 18.996C50.3527 18.8653 49.872 18.7253 49.256 18.576C48.5187 18.3893 47.9307 18.212 47.492 18.044C47.0533 17.8667 46.6753 17.6007 46.358 17.246C46.05 16.8913 45.896 16.4107 45.896 15.804C45.896 15.3093 46.0267 14.8613 46.288 14.46C46.5493 14.0493 46.9507 13.7227 47.492 13.48C48.0333 13.2373 48.7053 13.116 49.508 13.116C50.068 13.116 50.614 13.1953 51.146 13.354C51.6873 13.5033 52.154 13.7133 52.546 13.984L52.196 14.81C51.7853 14.5393 51.3467 14.3387 50.88 14.208C50.4133 14.068 49.956 13.998 49.508 13.998C48.6493 13.998 48.0007 14.166 47.562 14.502C47.1327 14.8287 46.918 15.2533 46.918 15.776C46.918 16.168 47.0347 16.4853 47.268 16.728C47.5107 16.9613 47.8093 17.1433 48.164 17.274C48.528 17.3953 49.0133 17.5307 49.62 17.68C50.3387 17.8573 50.9173 18.0347 51.356 18.212C51.804 18.38 52.182 18.6413 52.49 18.996C52.798 19.3413 52.952 19.8127 52.952 20.41C52.952 20.9047 52.8167 21.3573 52.546 21.768C52.2847 22.1693 51.8787 22.4913 51.328 22.734C50.7773 22.9673 50.1007 23.084 49.298 23.084ZM58.7513 15.58C59.6753 15.58 60.4079 15.8507 60.9493 16.392C61.4999 16.924 61.7753 17.7033 61.7753 18.73V23H60.7813V18.828C60.7813 18.0627 60.5899 17.4793 60.2073 17.078C59.8246 16.6767 59.2786 16.476 58.5693 16.476C57.7759 16.476 57.1459 16.714 56.6793 17.19C56.2219 17.6567 55.9933 18.3053 55.9933 19.136V23H54.9993V12.612H55.9933V16.924C56.2639 16.4947 56.6373 16.1633 57.1133 15.93C57.5893 15.6967 58.1353 15.58 58.7513 15.58ZM67.0499 15.58C68.0112 15.58 68.7486 15.8227 69.2619 16.308C69.7752 16.784 70.0319 17.4933 70.0319 18.436V23H69.0799V21.852C68.8559 22.2347 68.5246 22.5333 68.0859 22.748C67.6566 22.9627 67.1432 23.07 66.5459 23.07C65.7246 23.07 65.0712 22.874 64.5859 22.482C64.1006 22.09 63.8579 21.572 63.8579 20.928C63.8579 20.3027 64.0819 19.7987 64.5299 19.416C64.9872 19.0333 65.7106 18.842 66.6999 18.842H69.0379V18.394C69.0379 17.7593 68.8606 17.2787 68.5059 16.952C68.1512 16.616 67.6332 16.448 66.9519 16.448C66.4852 16.448 66.0372 16.5273 65.6079 16.686C65.1786 16.8353 64.8099 17.0453 64.5019 17.316L64.0539 16.574C64.4272 16.2567 64.8752 16.014 65.3979 15.846C65.9206 15.6687 66.4712 15.58 67.0499 15.58ZM66.6999 22.286C67.2599 22.286 67.7406 22.16 68.1419 21.908C68.5432 21.6467 68.8419 21.2733 69.0379 20.788V19.584H66.7279C65.4679 19.584 64.8379 20.0227 64.8379 20.9C64.8379 21.3293 65.0012 21.67 65.3279 21.922C65.6546 22.1647 66.1119 22.286 66.6999 22.286ZM73.6837 17.078C73.917 16.5833 74.2624 16.21 74.7197 15.958C75.1864 15.706 75.7604 15.58 76.4417 15.58V16.546L76.2037 16.532C75.429 16.532 74.8224 16.77 74.3837 17.246C73.945 17.722 73.7257 18.3893 73.7257 19.248V23H72.7317V15.636H73.6837V17.078ZM84.5851 19.626H78.4251C78.4811 20.3913 78.7751 21.012 79.3071 21.488C79.8391 21.9547 80.5111 22.188 81.3231 22.188C81.7804 22.188 82.2004 22.1087 82.5831 21.95C82.9658 21.782 83.2971 21.5393 83.5771 21.222L84.1371 21.866C83.8104 22.258 83.3998 22.5567 82.9051 22.762C82.4198 22.9673 81.8831 23.07 81.2951 23.07C80.5391 23.07 79.8671 22.9113 79.2791 22.594C78.7004 22.2673 78.2478 21.8193 77.9211 21.25C77.5944 20.6807 77.4311 20.0367 77.4311 19.318C77.4311 18.5993 77.5851 17.9553 77.8931 17.386C78.2104 16.8167 78.6398 16.3733 79.1811 16.056C79.7318 15.7387 80.3478 15.58 81.0291 15.58C81.7104 15.58 82.3218 15.7387 82.8631 16.056C83.4044 16.3733 83.8291 16.8167 84.1371 17.386C84.4451 17.946 84.5991 18.59 84.5991 19.318L84.5851 19.626ZM81.0291 16.434C80.3198 16.434 79.7224 16.6627 79.2371 17.12C78.7611 17.568 78.4904 18.156 78.4251 18.884H83.6471C83.5818 18.156 83.3064 17.568 82.8211 17.12C82.3451 16.6627 81.7478 16.434 81.0291 16.434Z" fill="#696969"/>
<defs>
<filter id="filter0_d_1987_17925" x="6.4375" y="11" width="21.125" height="22" filterUnits="userSpaceOnUse" color-interpolation-filters="sRGB">
<feFlood flood-opacity="0" result="BackgroundImageFix"/>
<feColorMatrix in="SourceAlpha" type="matrix" values="0 0 0 0 0 0 0 0 0 0 0 0 0 0 0 0 0 0 127 0" result="hardAlpha"/>
<feOffset dy="4"/>
<feGaussianBlur stdDeviation="2"/>
<feComposite in2="hardAlpha" operator="out"/>
<feColorMatrix type="matrix" values="0 0 0 0 0 0 0 0 0 0 0 0 0 0 0 0 0 0 0.25 0"/>
<feBlend mode="normal" in2="BackgroundImageFix" result="effect1_dropShadow_1987_17925"/>
<feBlend mode="normal" in="SourceGraphic" in2="effect1_dropShadow_1987_17925" result="shape"/>
</filter>
<clipPath id="clip0_1987_17925">
<rect width="14" height="14" fill="white" transform="translate(10 11)"/>
</clipPath>
</defs>
</svg>
